<?xml version="1.0" standalone="no"?>
<!DOCTYPE svg PUBLIC "-//W3C//DTD SVG 1.1//EN" "http://www.w3.org/Graphics/SVG/1.1/DTD/svg11.dtd" >
<svg xmlns="http://www.w3.org/2000/svg">
<metadata>Generated by IcoMoon</metadata>
<defs>
<font id="icomoon" horiz-adv-x="1024">
<font-face units-per-em="1024" ascent="960" descent="-64" />
<missing-glyph horiz-adv-x="1024" />
<glyph unicode="&#x20;" horiz-adv-x="512" d="" />
<glyph unicode="&#xe900;" glyph-name="caidan" horiz-adv-x="1317" d="M36.571 960h1243.429c20.198 0 36.571-16.374 36.571-36.571v-73.143c0-20.198-16.374-36.571-36.571-36.571h-1243.429c-20.198 0-36.571 16.374-36.571 36.571v73.143c0 20.198 16.374 36.571 36.571 36.571zM36.571 521.143h1243.429c20.198 0 36.571-16.374 36.571-36.571v-73.143c0-20.198-16.374-36.571-36.571-36.571h-1243.429c-20.198 0-36.571 16.374-36.571 36.571v73.143c0 20.198 16.374 36.571 36.571 36.571zM36.571 82.286h1243.429c20.198 0 36.571-16.374 36.571-36.571v-73.143c0-20.198-16.374-36.571-36.571-36.571h-1243.429c-20.198 0-36.571 16.374-36.571 36.571v73.143c0 20.198 16.374 36.571 36.571 36.571z" />
<glyph unicode="&#xe901;" glyph-name="chenggong" d="M512-55.467c-278.057 0-503.467 225.41-503.467 503.467s225.41 503.467 503.467 503.467c278.057 0 503.467-225.41 503.467-503.467 0-96.581-27.267-189.198-77.85-269.055-45.639-72.053-108.981-131.586-183.763-172.618-73.519-40.339-156.163-61.793-241.854-61.793zM512-4.267c77.027 0 151.207 19.257 217.225 55.48 67.189 36.866 124.126 90.379 165.139 155.128 45.429 71.721 69.903 154.85 69.903 241.658 0 249.78-202.487 452.267-452.267 452.267s-452.267-202.487-452.267-452.267c0-249.78 202.487-452.267 452.267-452.267zM452.267 541.867c0-14.138-11.462-25.6-25.6-25.6s-25.6 11.462-25.6 25.6c0 28.277-22.923 51.2-51.2 51.2s-51.2-22.923-51.2-51.2c0-14.138-11.462-25.6-25.6-25.6s-25.6 11.462-25.6 25.6c0 56.554 45.846 102.4 102.4 102.4s102.4-45.846 102.4-102.4zM776.533 541.867c0-14.138-11.462-25.6-25.6-25.6s-25.6 11.462-25.6 25.6c0 28.277-22.923 51.2-51.2 51.2s-51.2-22.923-51.2-51.2c0-14.138-11.462-25.6-25.6-25.6s-25.6 11.462-25.6 25.6c0 56.554 45.846 102.4 102.4 102.4s102.4-45.846 102.4-102.4zM332.8 337.067c0 14.138 11.462 25.6 25.6 25.6s25.6-11.462 25.6-25.6c0-70.692 57.308-128 128-128s128 57.308 128 128c0 14.138 11.462 25.6 25.6 25.6s25.6-11.462 25.6-25.6c0-98.969-80.231-179.2-179.2-179.2s-179.2 80.231-179.2 179.2z" />
<glyph unicode="&#xe902;" glyph-name="dengdai" d="M512-55.467c-278.057 0-503.467 225.41-503.467 503.467s225.41 503.467 503.467 503.467c278.057 0 503.467-225.41 503.467-503.467 0-96.581-27.267-189.198-77.85-269.055-45.639-72.053-108.981-131.586-183.763-172.618-73.519-40.339-156.163-61.793-241.854-61.793zM512-4.267c77.027 0 151.207 19.257 217.225 55.48 67.189 36.866 124.126 90.379 165.139 155.128 45.429 71.721 69.903 154.85 69.903 241.658 0 249.78-202.487 452.267-452.267 452.267s-452.267-202.487-452.267-452.267c0-249.78 202.487-452.267 452.267-452.267zM520.533 806.4c14.138 0 25.6-11.462 25.6-25.6v-341.333c0-14.138-11.462-25.6-25.6-25.6s-25.6 11.462-25.6 25.6v341.333c0 14.138 11.462 25.6 25.6 25.6zM341.281 260.319c-9.997 9.997-9.997 26.206 0 36.204l158.151 158.151c9.997 9.997 26.206 9.997 36.204 0s9.997-26.206 0-36.204l-158.151-158.151c-9.997-9.997-26.206-9.997-36.204 0z" />
<glyph unicode="&#xe903;" glyph-name="fanhui" horiz-adv-x="626" d="M177.81 448l388.341-388.341c11.108-11.108 11.108-29.118 0-40.227l-34.038-34.038c-11.108-11.108-29.118-11.108-40.227 0l-442.492 442.492c-11.108 11.108-11.108 29.118 0 40.227l442.492 442.492c11.108 11.108 29.118 11.108 40.227 0l34.038-34.038c11.108-11.108 11.108-29.118 0-40.227l-388.341-388.341z" />
<glyph unicode="&#xe904;" glyph-name="fanhuidingbu" d="M512 960c-282.76 0-512-229.24-512-512 0-282.829 229.24-512 512-512 282.829 0 512 229.171 512 512-0.002 282.76-229.173 512-512 512zM757.622 338.773c-13.313-13.313-34.953-13.313-48.264 0l-197.358 197.358-197.358-197.358c-13.313-13.313-34.953-13.313-48.264 0-13.313 13.244-13.313 34.953 0 48.264l221.387 221.389c6.691 6.691 15.429 9.966 24.235 9.966s17.544-3.278 24.235-9.966l221.387-221.387c13.313-13.313 13.313-34.885 0-48.266z" />
<glyph unicode="&#xe905;" glyph-name="gengduo" horiz-adv-x="614" d="M376.793 448l-347.967 345.283c-38.435 38.139-38.435 99.974 0 138.113s100.751 38.139 139.187 0l417.56-414.339c38.435-38.139 38.435-99.974 0-138.113l-417.56-414.339c-38.435-38.139-100.751-38.139-139.187 0s-38.435 99.974 0 138.113l347.967 345.283z" />
<glyph unicode="&#xe906;" glyph-name="gouxuan" horiz-adv-x="1365" d="M528.778 351.017l502.586 502.586c59.507 59.507 155.987 59.507 215.494 0s59.507-155.987 0-215.494l-593.212-593.212c-6.935-6.935-14.372-13.062-22.194-18.38-59.718-56.368-153.834-55.327-212.282 3.121l-323.643 323.643c-59.507 59.507-59.507 155.987 0 215.494s155.987 59.507 215.494 0l217.757-217.757z" />
<glyph unicode="&#xe907;" glyph-name="guanbi" d="M512 553.49l395.586 395.586c14.565 14.565 38.18 14.565 52.745 0l52.745-52.745c14.565-14.565 14.565-38.18 0-52.745l-395.586-395.586 395.586-395.586c14.565-14.565 14.565-38.18 0-52.745l-52.745-52.745c-14.565-14.565-38.18-14.565-52.745 0l-395.586 395.586-395.586-395.586c-14.565-14.565-38.18-14.565-52.745 0l-52.745 52.745c-14.565 14.565-14.565 38.18 0 52.745l395.586 395.586-395.586 395.586c-14.565 14.565-14.565 38.18 0 52.745l52.745 52.745c14.565 14.565 38.18 14.565 52.745 0l395.586-395.586z" />
<glyph unicode="&#xe908;" glyph-name="guizeyuxiane" d="M160 832c-17.673 0-32-14.327-32-32v-704c0-17.673 14.327-32 32-32h704c17.673 0 32 14.327 32 32v704c0 17.673-14.327 32-32 32h-704zM160 960h704c88.366 0 160-71.634 160-160v-704c0-88.366-71.634-160-160-160h-704c-88.366 0-160 71.634-160 160v704c0 88.366 71.634 160 160 160zM288 704h64c17.673 0 32-14.327 32-32v-448c0-17.673-14.327-32-32-32h-64c-17.673 0-32 14.327-32 32v448c0 17.673 14.327 32 32 32zM672 704h64c17.673 0 32-14.327 32-32v-448c0-17.673-14.327-32-32-32h-64c-17.673 0-32 14.327-32 32v448c0 17.673 14.327 32 32 32zM448 448c0-70.692-57.308-128-128-128s-128 57.308-128 128c0 70.692 57.308 128 128 128s128-57.308 128-128zM832 448c0-70.692-57.308-128-128-128s-128 57.308-128 128c0 70.692 57.308 128 128 128s128-57.308 128-128z" />
<glyph unicode="&#xe909;" glyph-name="jiesuanbaobiao1" horiz-adv-x="910" d="M142.222 846.222c-15.709 0-28.444-12.735-28.444-28.444v-739.556c0-15.709 12.735-28.444 28.444-28.444h625.778c15.709 0 28.444 12.735 28.444 28.444v739.556c0 15.709-12.735 28.444-28.444 28.444h-625.778zM142.222 960h625.778c78.547 0 142.222-63.675 142.222-142.222v-739.556c0-78.547-63.675-142.222-142.222-142.222h-625.778c-78.547 0-142.222 63.675-142.222 142.222v739.556c0 78.547 63.675 142.222 142.222 142.222zM256 732.444h398.222c15.709 0 28.444-12.735 28.444-28.444v-56.889c0-15.709-12.735-28.444-28.444-28.444h-398.222c-15.709 0-28.444 12.735-28.444 28.444v56.889c0 15.709 12.735 28.444 28.444 28.444zM256 504.889h113.778c15.709 0 28.444-12.735 28.444-28.444v-56.889c0-15.709-12.735-28.444-28.444-28.444h-113.778c-15.709 0-28.444 12.735-28.444 28.444v56.889c0 15.709 12.735 28.444 28.444 28.444zM256 277.333h113.778c15.709 0 28.444-12.735 28.444-28.444v-56.889c0-15.709-12.735-28.444-28.444-28.444h-113.778c-15.709 0-28.444 12.735-28.444 28.444v56.889c0 15.709 12.735 28.444 28.444 28.444zM540.444 504.889h113.778c15.709 0 28.444-12.735 28.444-28.444v-56.889c0-15.709-12.735-28.444-28.444-28.444h-113.778c-15.709 0-28.444 12.735-28.444 28.444v56.889c0 15.709 12.735 28.444 28.444 28.444zM540.444 277.333h113.778c15.709 0 28.444-12.735 28.444-28.444v-56.889c0-15.709-12.735-28.444-28.444-28.444h-113.778c-15.709 0-28.444 12.735-28.444 28.444v56.889c0 15.709 12.735 28.444 28.444 28.444z" />
<glyph unicode="&#xe90a;" glyph-name="jinggao" horiz-adv-x="1185" d="M700.85 826.859c-10.487 16.758-24.644 30.915-41.402 41.402-61.101 38.235-141.63 19.699-179.865-41.402l-390.289-623.692c-12.988-20.756-19.876-44.747-19.876-69.231 0-72.079 58.431-130.51 130.51-130.51h780.577c24.485 0 48.476 6.888 69.231 19.876 61.101 38.235 79.638 118.764 41.402 179.865l-390.289 623.692zM751.912 858.812l390.289-623.692c55.883-89.302 28.791-206.997-60.511-262.88-30.335-18.983-65.399-29.050-101.184-29.050h-780.577c-105.346 0-190.745 85.399-190.745 190.745 0 35.785 10.067 70.849 29.050 101.184l390.289 623.692c55.883 89.302 173.578 116.394 262.88 60.511 24.493-15.327 45.184-36.018 60.511-60.511zM592.314 698.98c16.634 0 30.118-13.484 30.118-30.118v-341.333c0-16.634-13.484-30.118-30.118-30.118s-30.118 13.484-30.118 30.118v341.333c0 16.634 13.484 30.118 30.118 30.118zM622.431 166.902c0-16.634-13.484-30.118-30.118-30.118s-30.118 13.484-30.118 30.118c0 16.634 13.484 30.118 30.118 30.118s30.118-13.484 30.118-30.118z" />
<glyph unicode="&#xe90b;" glyph-name="laba" horiz-adv-x="1109" d="M554.667 960c306.347 0 554.667-216.717 554.667-484.076s-248.32-484.076-554.667-484.076c-84.309 0-164.153 16.502-235.691 45.852-128.796-75.728-318.976-101.699-318.976-101.699 62.236 60.582 84.11 185.014 91.733 273.34-57.913 76.475-91.733 168.069-91.733 266.584 0 267.359 248.32 484.076 554.667 484.076z" />
<glyph unicode="&#xe90c;" glyph-name="lajitong" horiz-adv-x="970" d="M215.579 690.526v-538.947c0-59.53 48.259-107.789 107.789-107.789h323.368c59.53 0 107.789 48.259 107.789 107.789v538.947h-538.947zM107.789 798.316h754.526v-646.737c0-119.061-96.518-215.579-215.579-215.579h-323.368c-119.061 0-215.579 96.518-215.579 215.579v646.737zM53.895 798.316h862.316c29.765 0 53.895-24.129 53.895-53.895s-24.129-53.895-53.895-53.895h-862.316c-29.765 0-53.895 24.129-53.895 53.895s24.129 53.895 53.895 53.895zM323.368 960h323.368c29.765 0 53.895-24.129 53.895-53.895s-24.129-53.895-53.895-53.895h-323.368c-29.765 0-53.895 24.129-53.895 53.895s24.129 53.895 53.895 53.895zM377.263 528.842c29.765 0 53.895-24.129 53.895-53.895v-215.579c0-29.765-24.129-53.895-53.895-53.895s-53.895 24.129-53.895 53.895v215.579c0 29.765 24.129 53.895 53.895 53.895zM592.842 528.842c29.765 0 53.895-24.129 53.895-53.895v-215.579c0-29.765-24.129-53.895-53.895-53.895s-53.895 24.129-53.895 53.895v215.579c0 29.765 24.129 53.895 53.895 53.895z" />
<glyph unicode="&#xe90d;" glyph-name="lishikaijiang1" d="M832 384c-35.346 0-64 28.654-64 64s28.654 64 64 64c31.812 0 64 40.234 64 96s-32.188 96-64 96c-35.346 0-64 28.654-64 64s28.654 64 64 64c109.572 0 192-103.034 192-224s-82.428-224-192-224zM192 832c35.346 0 64-28.654 64-64s-28.654-64-64-64c-31.812 0-64-40.234-64-96s32.188-96 64-96c35.346 0 64-28.654 64-64s-28.654-64-64-64c-109.572 0-192 103.034-192 224s82.428 224 192 224zM384 832c-35.346 0-64-28.654-64-64v-256c0-106.039 85.961-192 192-192s192 85.961 192 192v256c0 35.346-28.654 64-64 64h-256zM384 960h256c106.039 0 192-85.961 192-192v-256c0-176.731-143.269-320-320-320s-320 143.269-320 320v256c0 106.039 85.961 192 192 192zM320 64h384c35.346 0 64-28.654 64-64s-28.654-64-64-64h-384c-35.346 0-64 28.654-64 64s28.654 64 64 64zM448 0v192c0 35.346 28.654 64 64 64s64-28.654 64-64v-192c0-35.346-28.654-64-64-64s-64 28.654-64 64z" />
<glyph unicode="&#xe90e;" glyph-name="pifuqiehuan" horiz-adv-x="1170" d="M994.883 130.514c7.53-94.137-45.896-162.788-141.896-191.456l-10.241-3.058h-480.885c-110.846 0-195.329 73.865-182.79 202.997 12.737 131.173 22.805 229.216 30.235 287.539-52.449-6.664-103.408 8.234-151.747 54.583-71.621 68.672-75.887 158.171-15.609 241.553l9.149 10.414 182.298 171.479c70.355 61.174 149.864 73.074 219.331 23.749 51.305-36.429 93.637-53.168 132.415-53.168 61.962 0 81.057 5.35 114.315 37.103 65.28 62.325 149.694 62.325 231.531 8.054l9.626-7.62c101.533-95.279 164.541-158.634 192.048-193.77 56.523-72.2 46.602-163.982-9.123-231.541-41.761-50.629-98.675-72.534-160.716-62.303 17.175-143.888 27.842-241.839 32.059-294.555zM158.801 586.709c18.804-18.030 31.338-18.558 58.053-7.332 3.769 1.584 19.193 8.624 23.132 10.265 58.518 24.386 111.669-9.928 123.482-65.398 5.097-23.936 2.996-50.871-3.455-77.71-4.74-19.72-18.998-153.357-35.342-321.677-3.349-34.487 5.9-42.573 37.189-42.573h458.775c24.887 8.719 29.958 17.433 28.428 36.565-4.514 56.433-17.19 170.965-38.014 343.152-11.397 100.507 61.778 159.599 154.717 114.538 24.805-12.027 33.2-10.3 44.925 3.915 15.2 18.428 17.015 35.217 6.786 48.282-20.843 26.624-79.216 85.412-172.244 172.84-24.991 15.865-33.882 15.251-44.759 4.866-65.453-62.49-119.32-77.582-215.333-77.582-73.209 0-143.121 27.644-217.107 80.177-8.912 6.328-15.397 5.357-36.52-12.934l-174.788-164.49c-15.078-22.065-13.636-29.842 2.073-44.905z" />
<glyph unicode="&#xe90f;" glyph-name="shalou" horiz-adv-x="796" d="M669.282 846.221v-144.448c0-93.95-34.162-146.609-103.121-194.409-4.35-3.015-18.73-12.749-18.305-12.459-30.27-20.651-35.856-27.947-35.856-46.905 0-19.805 6.607-28.951 37.145-51.796 1.060-0.793 14.662-10.866 18.927-14.092 67.931-51.385 101.21-104.51 101.21-197.177v-135.157h70.273c31.419 0 56.889-25.47 56.889-56.889s-25.47-56.889-56.889-56.889h-682.667c-31.419 0-56.889 25.47-56.889 56.889s25.47 56.889 56.889 56.889h56.889v135.157c0 92.667 33.279 145.791 101.21 197.177 4.265 3.227 17.867 13.3 18.927 14.092 30.538 22.844 37.145 31.991 37.145 51.796 0 18.958-5.586 26.254-35.856 46.905 0.425-0.29-13.955 9.444-18.305 12.459-68.959 47.8-103.121 100.459-103.121 194.409v144.448l113.778-0.018v-144.43c0-52.058 13.319-72.589 54.161-100.899 3.736-2.59 17.57-11.954 17.608-11.98 58.191-39.699 85.513-75.386 85.513-140.894 0-64.208-26.368-100.71-82.769-142.902-1.479-1.107-14.732-10.921-18.442-13.727-41.985-31.758-56.072-54.247-56.072-106.436v-135.157h327.949v135.157c0 52.189-14.088 74.677-56.072 106.436-3.71 2.806-16.962 12.621-18.442 13.727-56.401 42.192-82.769 78.694-82.769 142.902 0 65.507 27.322 101.195 85.513 140.894 0.038 0.026 13.872 9.39 17.608 11.98 40.842 28.31 54.161 48.841 54.161 100.899v144.449h113.778zM56.889 960h682.667c31.419 0 56.889-25.47 56.889-56.889s-25.47-56.889-56.889-56.889h-682.667c-31.419 0-56.889 25.47-56.889 56.889s25.47 56.889 56.889 56.889zM286.35 789.333h226.308c4.338-72.193-0.379-113.593-14.148-124.199-20.655-15.909-76.75-54.94-99.661-92.381-19.463 35.745-88.648 72.307-103.776 95.465-10.085 15.439-12.992 55.81-8.722 121.115zM502.233 100.277h-226.308c-4.338 72.193 0.379 113.593 14.148 124.199 20.655 15.909 76.75 54.94 99.661 92.381 19.463-35.745 88.648-72.307 103.776-95.465 10.085-15.439 12.992-55.81 8.722-121.115z" />
<glyph unicode="&#xe910;" glyph-name="shanchu" d="M512 116.706c-149.702 0-271.059 121.357-271.059 271.059s121.357 271.059 271.059 271.059c149.702 0 271.059-121.357 271.059-271.059s-121.357-271.059-271.059-271.059zM554.593 387.765l63.889 63.889c11.762 11.762 11.762 30.831 0 42.593s-30.831 11.762-42.593 0l-63.889-63.889-63.889 63.889c-11.762 11.762-30.831 11.762-42.593 0s-11.762-30.831 0-42.593l63.889-63.889-63.889-63.889c-11.762-11.762-11.762-30.831 0-42.593s30.831-11.762 42.593 0l63.889 63.889 63.889-63.889c11.762-11.762 30.831-11.762 42.593 0s11.762 30.831 0 42.593l-63.889 63.889z" />
<glyph unicode="&#xe911;" glyph-name="shanchu1" horiz-adv-x="1422" d="M743.599 524.41l120.68 120.68c22.216 22.216 58.237 22.216 80.453 0s22.216-58.237 0-80.453l-120.68-120.68 120.68-120.68c22.216-22.216 22.216-58.237 0-80.453s-58.237-22.216-80.453 0l-120.68 120.68-120.68-120.68c-22.216-22.216-58.237-22.216-80.453 0s-22.216 58.237 0 80.453l120.68 120.68-120.68 120.68c-22.216 22.216-22.216 58.237 0 80.453s58.237 22.216 80.453 0l120.68-120.68zM517.298 846.222c-44.616 0-87.458-17.471-119.35-48.672l-232.853-227.806c-0.928-0.908-1.845-1.826-2.752-2.755-65.854-67.435-64.572-175.488 2.863-241.342l232.763-227.305c31.882-31.134 74.677-48.564 119.24-48.564h576.408c94.257 0 170.667 76.41 170.667 170.667v455.111c0 94.257-76.41 170.667-170.667 170.667h-576.317zM517.298 960h576.317c157.094 0 284.444-127.35 284.444-284.444v-455.111c0-157.094-127.35-284.444-284.444-284.444h-576.408c-74.271 0-145.596 29.049-198.733 80.94l-232.763 227.305c-112.392 109.757-114.529 289.845-4.772 402.237 2.276 2.313 2.276 2.313 4.587 4.591l232.853 227.806c53.153 52.001 124.557 81.121 198.917 81.121z" />
<glyph unicode="&#xe912;" glyph-name="shouqi" horiz-adv-x="1707" d="M918.888 881.334l671.143-805.372c30.171-36.205 25.279-90.013-10.926-120.184-15.336-12.78-34.666-19.778-54.629-19.778h-1342.286c-47.128 0-85.333 38.205-85.333 85.333 0 19.963 6.999 39.293 19.778 54.629l671.143 805.372c30.171 36.205 83.979 41.097 120.184 10.926 3.965-3.304 7.622-6.961 10.926-10.926z" />
<glyph unicode="&#xe913;" glyph-name="shouqi1" horiz-adv-x="1707" d="M853.333 563.989l-575.471-579.945c-63.565-64.059-166.624-64.059-230.189 0s-63.565 167.919 0 231.978l690.566 695.934c63.565 64.059 166.624 64.059 230.188 0l690.566-695.934c63.565-64.059 63.565-167.919 0-231.978s-166.624-64.059-230.189 0l-575.471 579.945z" />
<glyph unicode="&#xe914;" glyph-name="sousuo" d="M409.786 260.899c159.784 0 289.315 129.531 289.315 289.315s-129.531 289.315-289.315 289.315c-159.784 0-289.315-129.531-289.315-289.315s129.531-289.315 289.315-289.315zM409.786 140.429c-226.318 0-409.786 183.467-409.786 409.786s183.467 409.786 409.786 409.786c226.318 0 409.786-183.467 409.786-409.786s-183.467-409.786-409.786-409.786zM825.234 223.924l182.287-182.287c23.523-23.523 23.523-61.662 0-85.186l-3.972-3.972c-23.523-23.523-61.662-23.523-85.186 0l-182.287 182.287c-23.523 23.523-23.523 61.662 0 85.186l3.972 3.972c23.523 23.523 61.662 23.523 85.186 0z" />
<glyph unicode="&#xe915;" glyph-name="tixing" horiz-adv-x="1006" d="M708.597 878.777c-11.701 12.194-27.885 19.064-44.785 19.010l-308.562-0.987c-16.383-0.052-32.074-6.608-43.624-18.226l-225.707-227.029c-11.203-11.269-17.635-26.421-17.959-42.308l-6.522-320.068c-0.334-16.379 5.85-32.221 17.193-44.042l213.635-222.647c11.701-12.194 27.885-19.064 44.785-19.010l308.562 0.987c16.383 0.052 32.074 6.608 43.624 18.226l225.707 227.029c11.203 11.269 17.635 26.421 17.959 42.308l6.522 320.068c0.334 16.379-5.85 32.221-17.193 44.042l-213.635 222.647zM746.814 915.447l213.635-222.647c21.065-21.953 32.55-51.373 31.93-81.792l-6.522-320.068c-0.601-29.504-12.545-57.643-33.352-78.571l-225.707-227.029c-21.451-21.576-50.592-33.751-81.016-33.849l-308.562-0.987c-31.385-0.1-61.442 12.658-83.172 35.304l-213.635 222.647c-21.065 21.953-32.55 51.373-31.93 81.792l6.522 320.068c0.601 29.504 12.545 57.643 33.352 78.571l225.707 227.029c21.451 21.576 50.592 33.751 81.016 33.849l308.562 0.987c31.385 0.1 61.442-12.658 83.172-35.304zM503.172 695.172c14.626 0 26.483-11.857 26.483-26.483v-300.138c0-14.626-11.857-26.483-26.483-26.483s-26.483 11.857-26.483 26.483v300.138c0 14.626 11.857 26.483 26.483 26.483zM529.655 227.31c0-14.626-11.857-26.483-26.483-26.483s-26.483 11.857-26.483 26.483c0 14.626 11.857 26.483 26.483 26.483s26.483-11.857 26.483-26.483z" />
<glyph unicode="&#xe916;" glyph-name="xiazhuxiangqing1" horiz-adv-x="910" d="M142.222 846.222c-15.709 0-28.444-12.735-28.444-28.444v-739.556c0-15.709 12.735-28.444 28.444-28.444h625.778c15.709 0 28.444 12.735 28.444 28.444v739.556c0 15.709-12.735 28.444-28.444 28.444h-625.778zM142.222 960h625.778c78.547 0 142.222-63.675 142.222-142.222v-739.556c0-78.547-63.675-142.222-142.222-142.222h-625.778c-78.547 0-142.222 63.675-142.222 142.222v739.556c0 78.547 63.675 142.222 142.222 142.222zM256 732.444h398.222c15.709 0 28.444-12.735 28.444-28.444v-56.889c0-15.709-12.735-28.444-28.444-28.444h-398.222c-15.709 0-28.444 12.735-28.444 28.444v56.889c0 15.709 12.735 28.444 28.444 28.444zM256 504.889h398.222c15.709 0 28.444-12.735 28.444-28.444v-56.889c0-15.709-12.735-28.444-28.444-28.444h-398.222c-15.709 0-28.444 12.735-28.444 28.444v56.889c0 15.709 12.735 28.444 28.444 28.444zM256 277.333h398.222c15.709 0 28.444-12.735 28.444-28.444v-56.889c0-15.709-12.735-28.444-28.444-28.444h-398.222c-15.709 0-28.444 12.735-28.444 28.444v56.889c0 15.709 12.735 28.444 28.444 28.444z" />
<glyph unicode="&#xe917;" glyph-name="zhankai" horiz-adv-x="1707" d="M787.778 14.666l-671.143 805.372c-30.171 36.205-25.279 90.013 10.926 120.184 15.336 12.78 34.666 19.778 54.629 19.778h1342.286c47.128 0 85.333-38.205 85.333-85.333 0-19.963-6.999-39.293-19.778-54.629l-671.143-805.372c-30.171-36.205-83.979-41.097-120.184-10.926-3.965 3.304-7.622 6.961-10.926 10.926z" />
<glyph unicode="&#xe918;" glyph-name="zhankai1" horiz-adv-x="1707" d="M853.333 332.011l575.471 579.945c63.565 64.059 166.624 64.059 230.189 0s63.565-167.919 0-231.978l-690.566-695.934c-63.565-64.059-166.624-64.059-230.188 0l-690.566 695.934c-63.565 64.059-63.565 167.919 0 231.978s166.624 64.059 230.189 0l575.471-579.945z" />
<glyph unicode="&#xe919;" glyph-name="zzdiannao" horiz-adv-x="1170" d="M219.429 813.714c-40.396 0-73.143-32.747-73.143-73.143v-365.714c0-40.396 32.747-73.143 73.143-73.143h731.429c40.396 0 73.143 32.747 73.143 73.143v365.714c0 40.396-32.747 73.143-73.143 73.143h-731.429zM731.429 155.429v-73.143h146.286c40.396 0 73.143-32.747 73.143-73.143s-32.747-73.143-73.143-73.143h-585.143c-40.396 0-73.143 32.747-73.143 73.143s32.747 73.143 73.143 73.143h146.286v73.143h-219.429c-121.187 0-219.429 98.242-219.429 219.429v365.714c0 121.187 98.242 219.429 219.429 219.429h731.429c121.187 0 219.429-98.242 219.429-219.429v-365.714c0-121.187-98.242-219.429-219.429-219.429h-219.429z" />
</font>
</defs>
</svg>
